HIERARCHY
ROOT Hips
{
	OFFSET 0.0000 0.0000 0.0000
	CHANNELS 6 Xposition Yposition Zposition Zrotation Xrotation Yrotation
	JOINT Spine1
	{
		OFFSET -0.0137 5.0038 -0.0537
		CHANNELS 3 Zrotation Xrotation Yrotation
		JOINT Spine2
		{
			OFFSET -0.0000 7.1253 -0.0298
			CHANNELS 3 Zrotation Xrotation Yrotation
			JOINT Chest
			{
				OFFSET -0.0000 7.5501 -0.8160
				CHANNELS 3 Zrotation Xrotation Yrotation
				JOINT Neck1
				{
					OFFSET -0.1817 26.3113 -0.5533
					CHANNELS 3 Zrotation Xrotation Yrotation
					JOINT Neck2
					{
						OFFSET -0.0000 7.7094 2.3026
						CHANNELS 3 Zrotation Xrotation Yrotation
						JOINT Head
						{
							OFFSET -0.0000 6.1289 1.9537
							CHANNELS 3 Zrotation Xrotation Yrotation
							JOINT Jaw
							{
								OFFSET 0.0026 0.4756 3.0949
								CHANNELS 3 Zrotation Xrotation Yrotation
								End Site
								{
									OFFSET 0.0 1.0 0.0
								}
							}
							JOINT LeftEye
							{
								OFFSET 3.2064 5.3802 7.5869
								CHANNELS 3 Zrotation Xrotation Yrotation
								End Site
								{
									OFFSET 0.0 1.0 0.0
								}
							}
							JOINT RightEye
							{
								OFFSET -3.2224 5.3619 7.5582
								CHANNELS 3 Zrotation Xrotation Yrotation
								End Site
								{
									OFFSET 0.0 1.0 0.0
								}
							}
						}
					}
				}
				JOINT LeftShoulder
				{
					OFFSET 1.6217 23.2372 5.1134
					CHANNELS 3 Zrotation Xrotation Yrotation
					JOINT LeftArm
					{
						OFFSET 14.9198 0.0000 -5.5023
						CHANNELS 3 Zrotation Xrotation Yrotation
						JOINT LeftForeArm
						{
							OFFSET 28.7393 0.0000 -0.0026
							CHANNELS 3 Zrotation Xrotation Yrotation
							JOINT LeftHand
							{
								OFFSET 27.0940 -0.0000 0.0026
								CHANNELS 3 Zrotation Xrotation Yrotation
								JOINT LeftHandThumbEnd
								{
									OFFSET 12.2686 -3.2202 4.8331
									CHANNELS 3 Zrotation Xrotation Yrotation
									End Site
									{
										OFFSET 0.0 1.0 0.0
									}
								}
								JOINT LeftHandMiddleEnd
								{
									OFFSET 19.0120 -0.3129 -0.0340
									CHANNELS 3 Zrotation Xrotation Yrotation
									End Site
									{
										OFFSET 0.0 1.0 0.0
									}
								}
							}
						}
					}
				}
				JOINT RightShoulder
				{
					OFFSET -1.3801 23.1803 5.2142
					CHANNELS 3 Zrotation Xrotation Yrotation
					JOINT RightArm
					{
						OFFSET -15.0372 0.0000 -5.5456
						CHANNELS 3 Zrotation Xrotation Yrotation
						JOINT RightForeArm
						{
							OFFSET -28.7366 0.0000 -0.0026
							CHANNELS 3 Zrotation Xrotation Yrotation
							JOINT RightHand
							{
								OFFSET -27.1336 -0.0000 0.0026
								CHANNELS 3 Zrotation Xrotation Yrotation
								JOINT RightHandThumbEnd
								{
									OFFSET -12.2642 -3.2115 4.8040
									CHANNELS 3 Zrotation Xrotation Yrotation
									End Site
									{
										OFFSET 0.0 1.0 0.0
									}
								}
								JOINT RightHandMiddleEnd
								{
									OFFSET -19.0006 -0.3066 -0.0316
									CHANNELS 3 Zrotation Xrotation Yrotation
									End Site
									{
										OFFSET 0.0 1.0 0.0
									}
								}
							}
						}
					}
				}
			}
		}
	}
	JOINT LeftLeg
	{
		OFFSET 10.0432 -8.4345 2.5957
		CHANNELS 3 Zrotation Xrotation Yrotation
		JOINT LeftShin
		{
			OFFSET -0.0000 -43.2218 -0.8029
			CHANNELS 3 Zrotation Xrotation Yrotation
			JOINT LeftFoot
			{
				OFFSET 0.0000 -42.1551 -3.4815
				CHANNELS 3 Zrotation Xrotation Yrotation
				JOINT LeftToeBase
				{
					OFFSET 0.0000 -5.0595 13.2315
					CHANNELS 3 Zrotation Xrotation Yrotation
					End Site
					{
						OFFSET 0.0 1.0 0.0
					}
				}
			}
		}
	}
	JOINT RightLeg
	{
		OFFSET -10.0473 -8.2953 2.6203
		CHANNELS 3 Zrotation Xrotation Yrotation
		JOINT RightShin
		{
			OFFSET 0.0000 -43.3622 -0.8056
			CHANNELS 3 Zrotation Xrotation Yrotation
			JOINT RightFoot
			{
				OFFSET 0.0000 -42.1174 -3.4784
				CHANNELS 3 Zrotation Xrotation Yrotation
				JOINT RightToeBase
				{
					OFFSET -0.0000 -5.0796 13.2842
					CHANNELS 3 Zrotation Xrotation Yrotation
					End Site
					{
						OFFSET 0.0 1.0 0.0
					}
				}
			}
		}
	}
}
MOTION
Frames: 10
Frame Time: 0.033333
46.4814 99.5106 -313.6626 3.4228 -3.5621 -4.7736 -2.5654 0.4308 -0.5800 -0.7651 -4.4672 -0.3825 -0.4916 11.5444 -2.6544 1.0405 4.3553 2.2040 -0.5747 -3.4564 -0.1194 -2.8121 -6.8365 0.9251 0.0289 0.0513 -0.1157 0.7480 -10.5171 -3.9618 -0.6943 -10.5281 3.7162 -13.3926 12.6900 -8.9619 -60.5072 13.4861 -48.6454 -0.2526 -0.0787 -17.2886 0.5855 -10.0144 -1.3298 -15.7971 10.7839 15.6443 -61.2070 1.5374 2.1692 14.4504 10.4116 12.8954 58.2908 4.3595 33.3567 0.4751 -0.1954 23.1966 -9.9747 -10.9850 6.0064 15.3569 7.3674 -16.3651 49.5939 -3.5932 -5.1058 -7.5657 1.1727 -1.0094 0.0538 6.7599 0.1062 3.9992 -4.3654 3.7652 1.6488 0.4651 -1.9204 -7.3082 -19.7905 -4.4408 -0.1465 51.7824 -0.3146 3.8251 -4.4771 -5.7500 -1.4942 -2.8232 1.0259
46.4819 99.4672 -315.7140 3.8041 -3.2461 -4.8560 -2.6453 0.0324 -0.5118 -0.8292 -4.6075 -0.0932 -0.6876 11.4602 -2.4074 0.8924 4.2902 2.2810 -0.5923 -3.4746 -0.1570 -2.6820 -6.3974 0.8088 0.0274 0.0564 -0.1291 0.7514 -10.5363 -3.9789 -0.7016 -10.5419 3.7065 -13.8705 12.7853 -8.5710 -60.8494 14.8061 -48.5152 -0.2768 -0.0830 -17.5378 0.4023 -9.7834 -1.4737 -15.8992 10.7233 15.6003 -61.1854 1.5234 2.1211 14.5796 10.1447 13.2945 57.3407 5.0685 34.7120 0.4704 -0.2124 24.4632 -9.6468 -9.6485 5.8207 15.3141 7.3996 -16.3733 49.6060 -3.5750 -5.0701 -7.8913 -0.6344 -1.2344 0.0825 6.7223 0.1526 4.0418 -3.3395 3.9696 1.6290 0.4139 -1.9247 -8.6080 -16.8817 -4.1108 -0.0735 55.2119 -0.2381 4.1909 -4.2358 -4.7536 -1.5158 -3.0349 1.0496
46.4453 99.3836 -317.7915 4.2544 -2.9548 -4.9791 -2.7008 -0.3777 -0.4284 -0.8904 -4.7674 0.2223 -0.9494 11.4175 -2.1331 0.6942 4.3317 2.3900 -0.6218 -3.4943 -0.2397 -2.5790 -6.0619 0.7027 0.0267 0.0561 -0.1279 0.7520 -10.5454 -3.9785 -0.7050 -10.5470 3.7096 -14.3018 12.6946 -8.1289 -61.1804 16.1980 -48.6067 -0.2751 -0.0885 -17.9199 0.4557 -10.2143 -1.9965 -15.9169 10.6990 15.5756 -61.0938 1.5104 2.0499 14.7125 9.9032 13.6875 56.5102 5.7810 36.1407 0.3392 -0.1930 25.4983 -9.2333 -8.5544 5.6353 15.2885 7.4111 -16.3899 49.6378 -3.5841 -5.0556 -8.2293 -2.5298 -1.4970 0.1198 6.8959 0.2257 4.1687 -2.2890 4.2043 1.6130 0.3236 -1.9478 -9.8239 -13.2838 -3.8441 0.0560 56.8606 0.0177 4.6485 -3.7555 -3.8097 -1.5330 -3.2347 1.0756
46.3187 99.3050 -319.9804 4.5672 -2.7111 -5.1083 -2.6059 -0.7552 -0.3363 -0.9160 -4.9683 0.5473 -1.2000 11.3860 -1.8174 0.4120 4.5094 2.5194 -0.6454 -3.5085 -0.3591 -2.4784 -5.8006 0.5549 0.0279 0.0473 -0.0946 0.7449 -10.5551 -3.9463 -0.6967 -10.5572 3.7441 -14.5794 12.5360 -7.7395 -61.5333 17.2877 -48.7783 -0.2329 -0.0892 -18.1047 0.4631 -10.6180 -2.4404 -15.8690 10.7367 15.6029 -61.0030 1.5074 1.9541 14.6372 9.8044 14.0059 55.9983 5.9999 37.2720 0.2201 -0.1697 26.0511 -9.0510 -7.9063 5.5147 15.2731 7.4370 -16.4395 49.6910 -3.5972 -5.1097 -8.3363 -4.5013 -1.7628 0.1394 7.2989 0.2739 4.1634 -1.2164 4.5132 1.6051 0.2380 -2.0009 -10.5722 -9.0223 -3.6623 0.1321 56.5328 0.2988 5.0604 -2.8452 -2.9513 -1.5313 -3.4440 1.0858
46.0585 99.2107 -322.3001 4.6526 -2.4605 -5.1909 -2.3566 -1.0968 -0.2563 -0.8779 -5.1925 0.8648 -1.3888 11.3120 -1.5147 0.0952 4.7549 2.6594 -0.6836 -3.5027 -0.4888 -2.3726 -5.5319 0.3461 0.0304 0.0348 -0.0432 0.7358 -10.5593 -3.8978 -0.6835 -10.5640 3.7977 -14.6965 12.3740 -7.4630 -61.8781 17.9871 -48.9688 -0.1571 -0.0727 -18.0546 0.4224 -10.9273 -2.6484 -15.7459 10.8176 15.6387 -60.9326 1.4934 1.9241 14.3103 9.8148 14.2558 55.9172 5.6067 37.9347 0.0959 -0.1153 26.1126 -9.0555 -7.6960 5.4083 15.2548 7.4336 -16.4732 49.6787 -3.6043 -5.1965 -8.0931 -6.6278 -2.0334 0.1427 7.9690 0.2805 3.9332 -0.1482 4.8544 1.6049 0.1628 -2.0441 -10.6599 -4.3823 -3.4015 0.1210 54.1706 0.5252 5.5057 -1.5030 -2.3277 -1.5144 -3.7352 1.0874
45.7184 99.0893 -324.6726 4.5228 -2.1426 -5.2135 -2.0032 -1.4384 -0.1581 -0.7972 -5.4196 1.1689 -1.5133 11.2091 -1.2600 -0.2067 4.9177 2.7825 -0.7316 -3.4966 -0.5504 -2.2150 -5.2033 0.0412 0.0342 0.0226 0.0110 0.7280 -10.5552 -3.8486 -0.6686 -10.5666 3.8548 -14.8179 12.2065 -7.3104 -61.9990 18.4502 -48.9090 -0.0401 -0.0404 -18.0082 0.2528 -11.1342 -2.6704 -15.6290 10.8938 15.6743 -60.9177 1.4772 1.9922 13.9530 9.8701 14.4679 55.9822 4.9187 38.2933 0.0297 -0.0396 25.8529 -9.0986 -7.5826 5.3031 15.2402 7.4129 -16.4903 49.6066 -3.6082 -5.3061 -7.5032 -9.0352 -2.2724 0.1251 8.9318 0.2445 3.4900 0.8796 5.1177 1.6090 0.1262 -2.0738 -10.1445 0.3588 -2.9529 0.0358 49.9510 0.6748 5.9942 0.1767 -1.8420 -1.4827 -4.4653 1.0790
45.3063 98.8579 -327.1655 4.3412 -1.7356 -5.2215 -1.6534 -1.7938 -0.0644 -0.7210 -5.5960 1.4869 -1.6019 11.1512 -1.0568 -0.4906 4.8358 2.8542 -0.7857 -3.4953 -0.5413 -1.9695 -4.9343 -0.3146 0.0390 0.0134 0.0569 0.7280 -10.5647 -3.8082 -0.6595 -10.5818 3.9011 -15.0872 12.1066 -7.2219 -61.6140 18.7386 -48.4847 0.0624 -0.0164 -18.1876 -0.0262 -11.2906 -2.6092 -15.5685 10.9207 15.7261 -60.9767 1.4882 2.1706 13.6486 9.9172 14.6782 55.9572 4.2951 38.6105 0.0104 0.0264 25.6089 -9.0792 -7.4598 5.2640 15.2115 7.3681 -16.4650 49.4704 -3.6314 -5.3825 -6.7491 -11.8108 -2.4968 0.1089 10.2722 0.2031 2.9325 1.8068 5.1387 1.6145 0.1395 -2.0813 -9.4161 4.7693 -2.3956 -0.0557 44.2961 0.7954 6.3881 1.8736 -1.2607 -1.4470 -6.3150 1.0730
44.8419 98.4411 -329.9387 4.2285 -1.2553 -5.3433 -1.3338 -2.0566 0.0930 -0.6773 -5.7216 1.7204 -1.7156 11.1494 -0.8495 -0.7127 4.4362 2.9328 -0.8079 -3.4865 -0.4293 -1.7384 -4.8743 -0.6660 0.0406 0.0087 0.0685 0.7359 -10.5826 -3.8004 -0.6648 -10.6005 3.9161 -15.3739 12.0349 -7.1504 -60.8793 18.8835 -47.9329 0.1365 -0.0190 -18.5726 -0.1892 -11.5939 -2.5839 -15.5319 10.9419 15.7120 -61.0520 1.5538 2.2929 13.2757 9.8436 14.9491 55.8499 3.9858 39.1880 0.0661 0.0387 25.5878 -9.0124 -7.4451 5.2064 15.1921 7.3239 -16.3932 49.2972 -3.6486 -5.4531 -5.9748 -14.9826 -2.6554 0.0924 12.0094 0.1402 2.4260 2.6479 5.0641 1.6147 0.2392 -2.0799 -8.8243 8.4825 -1.9294 -0.1349 38.0173 0.8471 6.2894 2.7320 -0.9946 -1.4630 -10.0594 1.1109
44.4026 97.8497 -332.8407 4.1606 -0.7398 -5.5808 -1.0656 -2.1703 0.2244 -0.6394 -5.7573 1.9729 -1.8109 11.1175 -0.7013 -0.9343 3.9059 3.0381 -0.7669 -3.4930 -0.3435 -1.5678 -5.1609 -0.8445 0.0364 0.0099 0.0574 0.7465 -10.5959 -3.8161 -0.6853 -10.6054 3.9104 -15.5337 11.9811 -7.0758 -60.0305 18.7538 -47.5388 0.1132 -0.0466 -18.8196 -0.2176 -11.7216 -2.5635 -15.5084 10.9588 15.7035 -61.0362 1.6268 2.3362 12.7392 9.7527 15.2583 55.7117 3.9170 40.2596 0.0472 0.0393 25.6885 -8.7408 -7.4932 4.9746 15.1960 7.2941 -16.3343 49.1604 -3.6541 -5.5376 -5.1784 -18.3244 -2.7299 0.0885 13.7315 0.0741 1.9913 3.6363 4.9704 1.6066 0.3853 -2.0538 -8.4804 11.2927 -2.1305 -0.1659 31.6949 0.8613 5.3962 1.5138 -1.3239 -1.5312 -15.5845 1.2128
43.8441 97.1914 -335.9982 4.0406 -0.3246 -5.8713 -0.8360 -2.1000 0.3128 -0.5691 -5.7517 2.1591 -1.8658 11.1599 -0.5690 -1.1673 3.3971 3.1574 -0.7132 -3.4769 -0.1516 -1.4575 -5.7673 -0.9701 0.0311 0.0224 0.0684 0.7561 -10.6054 -3.8067 -0.7067 -10.6130 3.9282 -15.5679 11.9443 -6.9935 -59.1225 18.4251 -47.4351 0.0057 -0.1010 -18.8373 -0.0636 -11.4665 -2.4210 -15.5104 10.9795 15.7145 -61.0335 1.6431 2.3510 12.1581 9.7220 15.6653 55.3579 3.9950 41.6332 0.0915 0.0506 25.7987 -8.2750 -7.4841 4.6387 15.2520 7.2920 -16.3092 49.1655 -3.6097 -5.5919 -4.2471 -21.3963 -2.6846 0.0684 14.9046 0.0010 1.6048 5.0211 4.8243 1.6067 0.3693 -2.0421 -8.2348 13.2416 -3.0072 -0.1386 25.9217 0.8342 4.4240 -2.3490 -1.9494 -1.5786 -18.9294 1.2992
